<svg width="127" height="108" viewBox="0 0 127 108" fill="none" xmlns="http://www.w3.org/2000/svg">
<path fill-rule="evenodd" clip-rule="evenodd" d="M34.085 0.278479C32.7996 0.496232 31.5725 0.860843 31.3583 1.08911C31.0856 1.37971 31.2605 1.41905 31.9426 1.22039C32.4782 1.06457 34.9323 0.845651 37.3961 0.734632C41.4964 0.54921 42.1322 0.618159 44.9022 1.54916C48.5273 2.76725 50.4091 3.90471 52.8796 6.37089C54.4845 7.97268 57.5872 12.9167 57.2027 13.2591C57.1287 13.3254 55.315 13.6732 53.1725 14.0324C35.6015 16.9777 20.1157 24.58 9.92614 35.2627C5.49473 39.9084 2.34569 44.9186 0.765323 49.8358C-0.424723 53.5399 -0.20736 58.35 1.28107 61.2505C3.60235 65.7727 9.15602 68.399 16.3984 68.399C27.1656 68.399 39.4362 61.8407 48.1085 51.4501C49.1797 50.1669 50.1509 49.0291 50.2666 48.9219C50.3823 48.8148 51.332 47.4171 52.3771 45.8161C54.6676 42.3075 56.5171 38.3872 57.8887 34.1358C58.8111 31.2762 58.9856 31.0019 59.7406 31.2302C61.2274 31.6797 62.2734 33.0022 62.6941 34.9647C62.9231 36.0321 63.1058 41.331 63.1054 46.8959L63.105 56.9075L56.5806 63.5449C46.9901 73.3017 39.1467 80.2242 33.0251 84.3351L30.7771 85.8441L27.2073 84.5006C20.9716 82.154 17.6203 81.5397 12.076 81.7267C8.07622 81.8619 6.83981 82.0524 5.15272 82.7929C2.44035 83.9837 1.16889 85.5103 1.16889 87.5768C1.16889 88.9106 1.40728 89.3921 2.65654 90.5802C7.01822 94.7296 17.4326 93.9505 28.6755 88.634C30.4639 87.7887 32.1658 87.0969 32.4579 87.0969C32.7501 87.0969 34.0247 87.4588 35.2899 87.9013C41.3652 90.0247 50.2525 90.7668 58.0418 89.8003C59.8629 89.5744 61.7035 89.3559 62.132 89.3146C62.8752 89.2429 62.9161 89.5062 63.0197 95.0303C63.1572 102.347 62.7443 104.839 61.1562 106.282C60.508 106.871 59.6732 107.389 59.3016 107.433C56.9433 107.713 71.9963 107.922 88.0905 107.833L107.037 107.728L107.221 106.664C107.321 106.079 108.038 103.244 108.813 100.365C109.588 97.4856 110.156 95.0634 110.075 94.9828C109.994 94.9017 109.713 95.5048 109.449 96.3224C107.781 101.501 105.159 104.727 101.374 106.255C99.1675 107.147 98.9385 107.158 83.7515 107.158H68.3646V70.931C68.3646 42.0481 68.4674 34.4603 68.8718 33.5028C69.1511 32.8421 70.0276 31.9259 70.8195 31.4666L72.26 30.6315L65.5938 30.6225L58.9272 30.6135L59.3078 28.5685C59.8352 25.7338 59.4153 17.9998 58.6086 15.6926C58.2486 14.663 58.0176 13.762 58.0955 13.6896C58.5104 13.3035 69.6735 12.6951 76.3085 12.697C85.7837 12.6998 91.545 13.4878 97.2845 15.5652C99.9365 16.5254 104.049 19.0812 103.567 19.47C103.488 19.5335 102.347 20.3071 101.033 21.189C96.2105 24.4226 89.6386 30.1815 80.7641 38.9493L71.6757 47.929V51.2315V54.5337L73.2249 53.0211L74.7737 51.5085L77.802 51.9082C83.1734 52.6175 87.278 55.3716 88.3632 58.9947C88.9214 60.8575 88.9432 64.183 88.4115 66.2565C86.8499 72.3419 80.6071 79.5165 73.3312 83.5872C72.1268 84.2611 71.6757 84.7593 71.6757 85.4157C71.6757 85.9119 71.8475 86.3178 72.0574 86.3178C73.3975 86.3178 80.5911 82.5638 83.4866 80.3536C92.2388 73.673 96.0192 65.1946 92.9481 59.1341C91.3864 56.0517 87.3422 53.0795 83.5504 52.2272C80.8591 51.6222 80.8953 51.5093 83.9462 50.9935C94.6785 49.1798 104.133 44.3071 108.776 38.196C113.015 32.6181 112.951 25.8245 108.618 21.3982C107.746 20.5077 107.152 19.5868 107.297 19.3519C107.827 18.4942 115.041 14.5419 118.142 13.4099C119.895 12.7703 122.822 12.0142 124.647 11.7294C127.192 11.3325 127.57 11.2031 126.273 11.1743C123.882 11.1209 117.52 12.4836 114.525 13.6904C113.133 14.2517 110.466 15.5118 108.599 16.4912L105.204 18.2717L102.95 17.0891C94.65 12.7344 81.9896 11.3352 63.5659 12.736C60.4978 12.9693 57.9335 13.0994 57.8669 13.0246C57.8003 12.9502 57.3005 12.013 56.7559 10.9418C53.3825 4.30477 47.2102 0.345091 39.7388 0.0244994C37.9146 -0.0534086 35.3705 0.0607261 34.085 0.278479ZM58.0554 15.4721C59.2466 19.8957 59.5092 24.5204 58.7955 28.4968C56.1993 42.9565 45.3486 57.1498 31.5756 64.1027C21.7421 69.0666 9.8159 69.0725 4.18471 64.1156C-2.75924 58.0033 0.31813 45.3802 11.3651 34.662C13.9793 32.1257 19.5661 27.4972 20.0133 27.4972C20.1165 27.4972 21.289 26.7746 22.6189 25.8915C25.1299 24.2235 33.1751 20.2171 36.2275 19.1143C40.791 17.4658 45.8387 16.0319 50.6405 15.0199C57.7021 13.5318 57.5303 13.5213 58.0554 15.4721ZM106.552 22.6841C108.656 26.2745 108.178 31.5107 105.342 35.9444C103.801 38.3533 100.164 42.0812 97.7149 43.7625C92.4931 47.3478 84.4413 50.274 78.4927 50.7485C75.1321 51.0165 75.0577 50.9141 77.1725 48.9274C77.518 48.6029 80.4298 45.4453 83.6439 41.9102C86.8576 38.3751 91.3615 33.5951 93.6528 31.2878C97.8544 27.0567 104.722 20.875 105.222 20.875C105.37 20.875 105.969 21.6892 106.552 22.6841ZM63.0739 75.764L63.1416 87.8039L61.8577 88.2016C57.4559 89.5662 47.65 90.0153 42.0706 89.1081C40.4638 88.8471 37.7814 88.1724 36.1099 87.6092L33.0707 86.5847L34.9413 85.4231C39.5643 82.5525 45.4074 78.3689 49.6667 74.8801C53.0058 72.1448 61.7358 64.4023 61.8721 64.0552C61.9438 63.8733 62.2282 63.7245 62.504 63.7245C62.9017 63.7245 63.0205 66.2335 63.0739 75.764ZM20.0616 82.7863C23.0498 83.5034 29.9949 85.85 29.9949 86.1425C29.9949 86.5356 24.3029 89.505 21.2302 90.7154C14.7627 93.2626 8.10933 93.4842 4.1925 91.2829C-0.314484 88.7497 1.19187 84.2264 7.06887 82.6452C10.1338 81.8206 16.3181 81.888 20.0616 82.7863Z" fill="#919191"/>
</svg>
